# xmcd
#
# Track frame offsets: 
#        150
#        15580
#        28830
#        48112
#        61692
#        76270
#        90985
#        108150
#        121175
#        136152
#        148427
#        163272
#
# Disc length: 2375 seconds
#
# Revision: 4
# Processed by: cddbd v1.5.2PL0 Copyright (c) Steve Scherf et al.
# Submitted via: ExactAudioCopyFreeDBPlugin 1.0
#
DISCID=9109450c
DTITLE=Jason McCoy - Playin' For Keeps
DYEAR=1997
DGENRE=Country
TTITLE0=Born Again In Dixieland
TTITLE1=A Little Bit Of You
TTITLE2=There's More Where That Came From
TTITLE3=Dare You To Do That To Me
TTITLE4=Heaven Help Her Heart
TTITLE5=Out Of This Town Alive
TTITLE6=Perfect Disguise
TTITLE7=Doin' It Right
TTITLE8=This Could Take All Night
TTITLE9=Get A Real Job
TTITLE10=Forever And A Day
TTITLE11=I'm Gonna Make Her Mine
EXTD=
EXTT0=
EXTT1=
EXTT2=
EXTT3=
EXTT4=
EXTT5=
EXTT6=
EXTT7=
EXTT8=
EXTT9=
EXTT10=
EXTT11=
PLAYORDER=
